<svg width="836" height="836" viewBox="0 0 836 836" fill="none" xmlns="http://www.w3.org/2000/svg">
<path d="M536.026 192.514C527.064 188.668 517.969 185.057 508.823 181.496C469.882 166.448 429.838 153.239 388.288 147.688C308.367 137.104 228.01 158.522 180.576 227.76C165.991 249.303 155.882 273.557 150.85 299.082C145.818 324.607 145.965 350.883 151.282 376.35C171.497 470.551 259.611 522.216 344.549 550.456C397.886 568.179 452.41 583.896 508.656 570.119C574.516 553.967 630.611 502.871 656.327 440.438C680.638 381.4 677.009 311.694 635.995 261.15C611.952 231.589 570.704 207.412 536.026 192.514Z" fill="#2FC9D2"/>
<path opacity="0.8" d="M536.026 192.514C527.064 188.668 517.969 185.057 508.823 181.496C469.882 166.448 429.838 153.239 388.288 147.688C308.367 137.104 228.01 158.522 180.576 227.76C165.991 249.303 155.882 273.557 150.85 299.082C145.818 324.607 145.965 350.883 151.282 376.35C171.497 470.551 259.611 522.216 344.549 550.456C397.886 568.179 452.41 583.896 508.656 570.119C574.516 553.967 630.611 502.871 656.327 440.438C680.638 381.4 677.009 311.694 635.995 261.15C611.952 231.589 570.704 207.412 536.026 192.514Z" fill="white"/>
<path d="M418 714.88C597.042 714.88 742.184 706.406 742.184 695.953C742.184 685.5 597.042 677.026 418 677.026C238.958 677.026 93.8159 685.5 93.8159 695.953C93.8159 706.406 238.958 714.88 418 714.88Z" fill="#272727"/>
<path d="M513.705 186.328H321.291C307.791 186.328 296.847 197.272 296.847 210.772V671.492C296.847 684.992 307.791 695.937 321.291 695.937H513.705C527.205 695.937 538.15 684.992 538.15 671.492V210.772C538.15 197.272 527.205 186.328 513.705 186.328Z" fill="#2FC9D2"/>
<path opacity="0.7" d="M513.705 186.328H321.291C307.791 186.328 296.847 197.272 296.847 210.772V671.492C296.847 684.992 307.791 695.937 321.291 695.937H513.705C527.205 695.937 538.15 684.992 538.15 671.492V210.772C538.15 197.272 527.205 186.328 513.705 186.328Z" fill="white"/>
<path d="M520.159 185.458H327.745C314.245 185.458 303.301 196.402 303.301 209.903V670.622C303.301 684.123 314.245 695.067 327.745 695.067H520.159C533.66 695.067 544.604 684.123 544.604 670.622V209.903C544.604 196.402 533.66 185.458 520.159 185.458Z" fill="#2FC9D2"/>
<path opacity="0.2" d="M520.159 185.458H327.745C314.245 185.458 303.301 196.402 303.301 209.903V670.622C303.301 684.123 314.245 695.067 327.745 695.067H520.159C533.66 695.067 544.604 684.123 544.604 670.622V209.903C544.604 196.402 533.66 185.458 520.159 185.458Z" fill="black"/>
<path d="M433.366 672.612C433.369 674.766 432.733 676.873 431.538 678.666C430.343 680.458 428.644 681.856 426.654 682.682C424.664 683.508 422.474 683.725 420.362 683.305C418.249 682.886 416.308 681.849 414.784 680.326C413.261 678.802 412.224 676.861 411.805 674.748C411.385 672.635 411.602 670.445 412.428 668.456C413.254 666.466 414.652 664.766 416.444 663.572C418.237 662.377 420.343 661.741 422.498 661.744C425.38 661.744 428.144 662.889 430.182 664.927C432.221 666.965 433.366 669.73 433.366 672.612Z" fill="#2FC9D2"/>
<path opacity="0.4" d="M433.366 672.612C433.369 674.766 432.733 676.873 431.538 678.666C430.343 680.458 428.644 681.856 426.654 682.682C424.664 683.508 422.474 683.725 420.362 683.305C418.249 682.886 416.308 681.849 414.784 680.326C413.261 678.802 412.224 676.861 411.805 674.748C411.385 672.635 411.602 670.445 412.428 668.456C413.254 666.466 414.652 664.766 416.444 663.572C418.237 662.377 420.343 661.741 422.498 661.744C425.38 661.744 428.144 662.889 430.182 664.927C432.221 666.965 433.366 669.73 433.366 672.612Z" fill="black"/>
<path d="M542.664 656.678H302.565V218.748H544.336L542.664 656.678Z" fill="#2FC9D2"/>
<path opacity="0.8" d="M544.788 656.444L302.431 656.728V218.781L544.57 218.53L544.788 656.444Z" fill="white"/>
<path opacity="0.33" d="M284.29 226.088H282.618V248.192H284.29V226.088Z" fill="#2FC9D2"/>
<path opacity="0.33" d="M284.29 254.328H282.618V261.25H284.29V254.328Z" fill="#2FC9D2"/>
<path d="M492.404 236.872H325.856C316.677 236.872 309.236 244.313 309.236 253.492V352.909C309.236 362.088 316.677 369.529 325.856 369.529H492.404C501.583 369.529 509.024 362.088 509.024 352.909V253.492C509.024 244.313 501.583 236.872 492.404 236.872Z" fill="white"/>
<path opacity="0.27" d="M348.374 287.93C359.645 283.218 364.962 270.26 360.249 258.989C355.537 247.718 342.579 242.401 331.308 247.113C320.037 251.826 314.72 264.783 319.432 276.055C324.145 287.326 337.102 292.643 348.374 287.93Z" fill="#2FC9D2"/>
<path d="M358.109 267.52C358.123 270.558 357.363 273.55 355.902 276.214C353.78 280.127 350.303 283.131 346.123 284.66C341.942 286.189 337.348 286.138 333.202 284.517C329.057 282.897 325.646 279.818 323.612 275.859C321.577 271.9 321.058 267.334 322.154 263.02C323.249 258.706 325.882 254.941 329.559 252.432C333.235 249.923 337.701 248.843 342.118 249.396C346.534 249.948 350.597 252.095 353.542 255.433C356.486 258.771 358.111 263.069 358.109 267.52Z" fill="white"/>
<path opacity="0.27" d="M355.902 276.198C354.335 279.088 352.016 281.502 349.191 283.184C346.366 284.866 343.139 285.754 339.851 285.754C336.562 285.754 333.335 284.866 330.51 283.184C327.685 281.502 325.366 279.088 323.799 276.198C328.551 273.025 334.137 271.332 339.851 271.332C345.564 271.332 351.15 273.025 355.902 276.198Z" fill="#2FC9D2"/>
<path opacity="0.27" d="M339.851 269.376C344.338 269.376 347.976 265.738 347.976 261.25C347.976 256.762 344.338 253.124 339.851 253.124C335.363 253.124 331.725 256.762 331.725 261.25C331.725 265.738 335.363 269.376 339.851 269.376Z" fill="#2FC9D2"/>
<path d="M496.768 381.784H321.492C314.723 381.784 309.236 387.272 309.236 394.04V415.96C309.236 422.729 314.723 428.216 321.492 428.216H496.768C503.536 428.216 509.024 422.729 509.024 415.96V394.04C509.024 387.272 503.536 381.784 496.768 381.784Z" fill="white"/>
<path opacity="0.6" d="M542.982 432.714L566.607 497.821C567.216 499.524 567.127 501.399 566.36 503.037C565.593 504.675 564.209 505.944 562.511 506.566L438.566 551.526C436.865 552.136 434.992 552.049 433.354 551.285C431.716 550.521 430.447 549.142 429.821 547.446L406.196 482.322C405.583 480.621 405.67 478.747 406.438 477.11C407.206 475.474 408.592 474.209 410.292 473.594L534.237 428.617C535.941 428.008 537.815 428.097 539.453 428.864C541.091 429.632 542.36 431.015 542.982 432.714Z" fill="#2FC9D2"/>
<path d="M539.237 428.768L503.807 487.07C500.526 492.476 495.496 496.599 489.551 498.755C483.606 500.911 477.103 500.971 471.12 498.925L406.547 476.888C407.325 475.338 408.664 474.142 410.292 473.544L534.238 428.567C535.87 428.002 537.655 428.073 539.237 428.768Z" fill="#2FC9D2"/>
<path opacity="0.5" d="M539.237 428.768L503.807 487.07C500.526 492.476 495.496 496.599 489.551 498.755C483.606 500.911 477.103 500.971 471.12 498.925L406.547 476.888C407.325 475.338 408.664 474.142 410.292 473.544L534.238 428.567C535.87 428.002 537.655 428.073 539.237 428.768Z" fill="white"/>
<path opacity="0.6" d="M504.108 544.621L502.971 603.274C502.936 604.804 502.298 606.259 501.195 607.32C500.093 608.382 498.616 608.965 497.086 608.942L385.413 606.769C384.655 606.754 383.908 606.589 383.214 606.285C382.52 605.981 381.893 605.543 381.368 604.997C380.843 604.45 380.431 603.806 380.155 603.1C379.88 602.394 379.746 601.641 379.761 600.883L380.882 542.23C380.902 541.436 381.083 540.656 381.413 539.934C381.744 539.213 382.217 538.566 382.804 538.033C383.892 537.06 385.308 536.535 386.767 536.562L498.44 538.718C499.973 538.754 501.43 539.394 502.492 540.5C503.554 541.606 504.135 543.087 504.108 544.621Z" fill="#2FC9D2"/>
<path d="M502.353 540.357L456.607 575.67C452.364 578.941 447.133 580.668 441.776 580.565C436.42 580.461 431.259 578.534 427.146 575.101L382.888 538.033C383.976 537.06 385.392 536.535 386.851 536.562L498.524 538.718C499.959 538.77 501.324 539.354 502.353 540.357Z" fill="#2FC9D2"/>
<path opacity="0.5" d="M502.353 540.357L456.607 575.67C452.364 578.941 447.133 580.668 441.776 580.565C436.42 580.461 431.259 578.534 427.146 575.101L382.888 538.033C383.976 537.06 385.392 536.535 386.851 536.562L498.524 538.718C499.959 538.77 501.324 539.354 502.353 540.357Z" fill="white"/>
<path d="M391.465 199.252C391.469 198.492 391.697 197.75 392.122 197.12C392.546 196.49 393.148 196 393.851 195.711C394.554 195.423 395.327 195.349 396.071 195.499C396.816 195.65 397.5 196.017 398.036 196.556C398.572 197.094 398.937 197.779 399.084 198.525C399.231 199.27 399.154 200.043 398.862 200.744C398.571 201.446 398.078 202.046 397.446 202.468C396.814 202.889 396.071 203.115 395.311 203.115C394.805 203.115 394.303 203.015 393.835 202.82C393.368 202.626 392.943 202.341 392.586 201.982C392.228 201.623 391.946 201.198 391.753 200.729C391.561 200.261 391.463 199.759 391.465 199.252Z" fill="#2FC9D2"/>
<path d="M408.603 195.407H440.555C441.574 195.411 442.549 195.818 443.27 196.538C443.99 197.258 444.397 198.234 444.401 199.252C444.401 200.274 443.996 201.254 443.276 201.977C442.555 202.701 441.577 203.11 440.555 203.115H408.603C407.582 203.11 406.604 202.701 405.883 201.977C405.162 201.254 404.758 200.274 404.758 199.252C404.762 198.234 405.169 197.258 405.889 196.538C406.609 195.818 407.585 195.411 408.603 195.407Z" fill="#2FC9D2"/>
<path opacity="0.4" d="M391.465 199.252C391.469 198.492 391.697 197.75 392.122 197.12C392.546 196.49 393.148 196 393.851 195.711C394.554 195.423 395.327 195.349 396.071 195.499C396.816 195.65 397.5 196.017 398.036 196.556C398.572 197.094 398.937 197.779 399.084 198.525C399.231 199.27 399.154 200.043 398.862 200.744C398.571 201.446 398.078 202.046 397.446 202.468C396.814 202.889 396.071 203.115 395.311 203.115C394.805 203.115 394.303 203.015 393.835 202.82C393.368 202.626 392.943 202.341 392.586 201.982C392.228 201.623 391.946 201.198 391.753 200.729C391.561 200.261 391.463 199.759 391.465 199.252Z" fill="black"/>
<path opacity="0.4" d="M408.603 195.407H440.555C441.574 195.411 442.549 195.818 443.27 196.538C443.99 197.258 444.397 198.234 444.401 199.252C444.401 200.274 443.996 201.254 443.276 201.977C442.555 202.701 441.577 203.11 440.555 203.115H408.603C407.582 203.11 406.604 202.701 405.883 201.977C405.162 201.254 404.758 200.274 404.758 199.252C404.762 198.234 405.169 197.258 405.889 196.538C406.609 195.818 407.585 195.411 408.603 195.407Z" fill="black"/>
<path d="M544.938 272.887H529.004C525.301 272.887 522.299 275.889 522.299 279.592V328.13C522.299 331.833 525.301 334.835 529.004 334.835H544.938C548.641 334.835 551.643 331.833 551.643 328.13V279.592C551.643 275.889 548.641 272.887 544.938 272.887Z" fill="#2FC9D2"/>
<path opacity="0.8" d="M544.938 272.887H529.004C525.301 272.887 522.299 275.889 522.299 279.592V328.13C522.299 331.833 525.301 334.835 529.004 334.835H544.938C548.641 334.835 551.643 331.833 551.643 328.13V279.592C551.643 275.889 548.641 272.887 544.938 272.887Z" fill="white"/>
<path d="M546.61 352.708H527.332C524.553 352.708 522.299 354.962 522.299 357.741V382.62C522.299 385.4 524.553 387.653 527.332 387.653H546.61C549.39 387.653 551.643 385.4 551.643 382.62V357.741C551.643 354.962 549.39 352.708 546.61 352.708Z" fill="#2FC9D2"/>
<path opacity="0.8" d="M546.61 352.708H527.332C524.553 352.708 522.299 354.962 522.299 357.741V382.62C522.299 385.4 524.553 387.653 527.332 387.653H546.61C549.39 387.653 551.643 385.4 551.643 382.62V357.741C551.643 354.962 549.39 352.708 546.61 352.708Z" fill="white"/>
<mask id="mask0_268_3002" style="mask-type:luminance" maskUnits="userSpaceOnUse" x="296" y="217" width="242" height="438">
<path d="M537.632 217.042H296.329V654.989H537.632V217.042Z" fill="white"/>
</mask>
<g mask="url(#mask0_268_3002)">
<path d="M332.695 644.439L344.984 645.626L357.775 616.383L345.486 615.179L332.695 644.439Z" fill="#E4897B"/>
<path d="M357.775 616.383L351.187 631.464H338.363L345.469 615.179L357.775 616.383Z" fill="#CE6F64"/>
<path d="M470.886 345.134L471.287 346.037L471.805 347.091C472.14 347.793 472.524 348.512 472.909 349.231C473.694 350.652 474.581 352.09 475.417 353.461C477.177 356.268 479.115 358.959 481.218 361.52C483.359 364.056 485.642 366.467 488.057 368.743C489.311 369.846 490.532 370.983 491.836 372.087L493.792 373.625L494.243 373.993C494.031 373.927 493.813 373.882 493.591 373.859C493.107 373.809 492.618 373.884 492.17 374.077C491.897 374.156 491.653 374.313 491.468 374.528C491.351 374.695 491.652 374.428 491.903 373.993C492.564 372.774 493.086 371.484 493.458 370.147C494.376 366.9 495.096 363.6 495.614 360.266C496.183 356.822 496.651 353.294 497.019 349.766C497.387 346.238 497.771 342.643 498.106 339.132L504.56 339.031C504.961 342.76 505.128 346.388 505.279 350.1C505.429 353.812 505.362 357.49 505.279 361.252C505.131 365.12 504.69 368.971 503.958 372.772C503.534 374.962 502.855 377.095 501.935 379.126C501.268 380.564 500.35 381.872 499.226 382.988C498.355 383.808 497.333 384.45 496.216 384.878C494.915 385.365 493.517 385.537 492.137 385.379C491.017 385.232 489.931 384.893 488.926 384.376C488.525 384.174 488.134 383.951 487.756 383.707L487.121 383.289L484.68 381.617C483.008 380.514 481.536 379.293 480.015 378.073C477.007 375.561 474.185 372.834 471.571 369.913C468.977 366.967 466.592 363.844 464.432 360.567C463.362 358.895 462.375 357.223 461.422 355.551C460.954 354.665 460.502 353.795 460.068 352.876L459.432 351.454C459.215 350.953 459.048 350.552 458.78 349.866L470.886 345.134Z" fill="#E4897B"/>
<path d="M476.537 353.779L465.301 369.278L469.949 373.843L481.904 359.463L476.537 353.779Z" fill="#F5F5F5"/>
<path d="M458.914 333.33C471.571 336.674 480.299 354.431 480.299 354.431L465.686 374.913C465.686 374.913 448.096 352.792 448.548 345.803C448.982 338.48 451.29 331.273 458.914 333.33Z" fill="#2FC9D2"/>
<path opacity="0.7" d="M458.914 333.33C471.571 336.674 480.299 354.431 480.299 354.431L465.686 374.913C465.686 374.913 448.096 352.792 448.548 345.803C448.982 338.48 451.29 331.273 458.914 333.33Z" fill="white"/>
<path d="M469.832 339.867C469.832 339.867 473.996 344.783 425.809 403.103L381.216 376.986C392.586 359.279 399.157 348.094 412.282 305.759C419.292 308.117 426.121 310.984 432.714 314.336C439.71 317.86 446.478 321.82 452.979 326.191C461.205 332.076 469.832 339.867 469.832 339.867Z" fill="#2FC9D2"/>
<path opacity="0.7" d="M469.832 339.867C469.832 339.867 473.996 344.783 425.809 403.103L381.216 376.986C392.586 359.279 399.157 348.094 412.282 305.759C419.292 308.117 426.121 310.984 432.714 314.336C439.71 317.86 446.478 321.82 452.979 326.191C461.205 332.076 469.832 339.867 469.832 339.867Z" fill="white"/>
<path d="M464.047 334.835C460.904 332.226 456.874 328.999 452.978 326.191C446.513 321.764 439.741 317.803 432.714 314.336C428.768 312.279 424.721 310.474 421.277 309.103C420.725 310.022 421.177 312.831 422.866 316.944C429.286 325.221 444.2 337.41 456.64 339.834C462.425 338.998 464.231 337.159 464.047 334.835Z" fill="#F5F5F5"/>
<path d="M422.866 316.944C426.612 325.294 431.601 333.028 437.663 339.884C443.973 340.514 450.33 340.514 456.64 339.884C444.2 337.41 429.286 325.221 422.866 316.944Z" fill="#F5F5F5"/>
<path d="M425.859 403.103C425.859 403.103 426.578 517.668 406.263 550.74C385.129 585.133 357.574 627.084 357.574 627.084L333.715 625.93C333.715 625.93 361.537 563.865 372.037 535.057C386.5 495.347 393.188 383.975 393.188 383.975L425.859 403.103Z" fill="#2FC9D2"/>
<path opacity="0.4" d="M425.859 403.103C425.859 403.103 426.578 517.668 406.263 550.74C385.129 585.133 357.574 627.084 357.574 627.084L333.715 625.93C333.715 625.93 361.537 563.865 372.037 535.057C386.5 495.347 393.188 383.975 393.188 383.975L425.859 403.103Z" fill="black"/>
<path opacity="0.2" d="M400.478 406.296C396.614 409.573 393.291 413.438 390.63 417.749C389.877 426.276 388.958 435.857 387.904 445.889C395.177 436.007 400.929 418.669 400.478 406.296Z" fill="black"/>
<path d="M414.071 396.264C414.071 396.264 363.593 467.926 332.143 506.616C306.729 537.799 233.161 560.12 233.161 560.12L224.182 545.072C224.182 545.072 282.702 512.401 300.158 491.301C356.036 423.752 355.334 388.723 381.283 377.17L414.071 396.264Z" fill="#2FC9D2"/>
<path opacity="0.4" d="M414.071 396.264C414.071 396.264 363.593 467.926 332.143 506.616C306.729 537.799 233.161 560.12 233.161 560.12L224.182 545.072C224.182 545.072 282.702 512.401 300.158 491.301C356.036 423.752 355.334 388.723 381.283 377.17L414.071 396.264Z" fill="black"/>
<path d="M498.256 340.704L494.912 327.328L507.669 331.039C507.669 331.039 507.318 340.035 502.904 342.961L498.256 340.704Z" fill="#E4897B"/>
<path d="M498.975 316.593L507.937 321.124L507.72 331.106L494.962 327.394L498.975 316.593Z" fill="#E4897B"/>
<path d="M338.714 321.509L327.01 314.319L338.714 308.066C338.714 308.066 344.716 314.754 343.613 319.937L338.714 321.509Z" fill="#E4897B"/>
<path d="M322.378 303.769L331.959 300.759L338.781 308.066L327.027 314.319L322.378 303.769Z" fill="#E4897B"/>
<path d="M346.622 641.831H331.574C331.303 641.832 331.04 641.924 330.825 642.09C330.611 642.256 330.457 642.488 330.387 642.75L327.043 654.705C326.961 654.986 326.947 655.283 327.002 655.571C327.057 655.858 327.179 656.129 327.358 656.361C327.537 656.592 327.769 656.778 328.034 656.903C328.299 657.028 328.59 657.088 328.883 657.079C334.166 656.996 336.741 656.695 343.379 656.695C347.458 656.695 358.025 657.113 363.66 657.113C369.295 657.113 370.348 651.528 368.058 651.027C357.808 648.769 351.923 645.643 348.763 642.667C348.181 642.126 347.416 641.828 346.622 641.831Z" fill="#263238"/>
<path d="M382.102 373.976L377.755 376.802C377.421 377.019 377.605 377.554 378.123 377.855L424.939 405.226C425.34 405.46 425.792 405.46 425.959 405.226L428.701 401.464C428.885 401.196 428.701 400.762 428.233 400.511L383.089 374.077C382.95 373.969 382.784 373.903 382.61 373.885C382.435 373.867 382.26 373.899 382.102 373.976Z" fill="#263238"/>
<path d="M408.62 324.936C405.46 327.461 402.451 329.501 399.257 331.624C396.064 333.748 392.82 335.57 389.476 337.376C382.766 341.048 375.702 344.034 368.392 346.288C367.489 346.606 366.519 346.823 365.6 347.074C364.68 347.325 363.794 347.575 362.69 347.809C360.294 348.347 357.822 348.472 355.384 348.177C352.798 347.87 350.31 347.002 348.094 345.636C346.033 344.333 344.226 342.668 342.76 340.72C340.285 337.27 338.513 333.367 337.544 329.234C337.048 327.328 336.691 325.389 336.473 323.432C336.208 321.481 336.079 319.515 336.089 317.546L342.509 316.994C343.284 320.258 344.33 323.452 345.636 326.542C346.773 329.372 348.422 331.968 350.502 334.199C351.247 335.04 352.157 335.72 353.175 336.198C354.192 336.675 355.297 336.939 356.42 336.975C357.601 336.966 358.773 336.78 359.898 336.423C361.353 335.955 363.058 335.42 364.613 334.851C371.048 332.432 377.273 329.485 383.223 326.04C386.266 324.368 389.175 322.445 392.118 320.589C395.06 318.733 397.953 316.643 400.478 314.737L408.62 324.936Z" fill="#E4897B"/>
<path d="M387.938 320.556L393.723 338.045L399.157 334.785L394.074 317.446L387.938 320.556Z" fill="#F5F5F5"/>
<path d="M353.311 644.322C351.92 644.295 350.535 644.121 349.181 643.804C349.12 643.787 349.065 643.753 349.023 643.706C348.981 643.658 348.955 643.599 348.947 643.536C348.946 643.474 348.963 643.413 348.996 643.359C349.028 643.306 349.075 643.263 349.131 643.235C350.134 642.75 355.284 640.426 356.655 641.346C356.786 641.439 356.89 641.565 356.955 641.713C357.019 641.86 357.043 642.022 357.023 642.182C357.015 642.463 356.944 642.739 356.814 642.988C356.683 643.237 356.497 643.454 356.27 643.62C355.38 644.154 354.346 644.4 353.311 644.322ZM350.234 643.402C351.906 643.703 354.715 644.038 355.902 643.135C356.063 643.022 356.194 642.871 356.284 642.697C356.375 642.522 356.421 642.328 356.421 642.132C356.43 642.08 356.426 642.026 356.409 641.976C356.391 641.926 356.361 641.882 356.32 641.847C355.568 641.346 352.475 642.416 350.234 643.402Z" fill="#2FC9D2"/>
<path d="M349.247 643.804C349.188 643.827 349.123 643.827 349.064 643.804C349.017 643.771 348.982 643.724 348.964 643.67C348.946 643.615 348.946 643.557 348.963 643.503C348.963 643.268 350.267 637.801 353.277 638.186C354.063 638.269 354.263 638.671 354.314 638.971C354.514 640.409 351.07 643.151 349.298 643.854L349.247 643.804ZM353.009 638.704C351.204 638.704 350.117 641.63 349.665 642.951C351.337 641.998 353.779 639.824 353.662 638.988C353.662 638.854 353.478 638.754 353.16 638.721L353.009 638.704Z" fill="#2FC9D2"/>
<path d="M385.212 382.587L384.009 381.885C383.774 381.734 383.657 381.5 383.758 381.366L387.369 376.501C387.47 376.367 387.754 376.367 387.988 376.501L389.208 377.22C389.443 377.354 389.56 377.588 389.459 377.722L385.848 382.587C385.747 382.721 385.463 382.721 385.212 382.587Z" fill="#2FC9D2"/>
<path d="M421.244 403.671L420.04 402.952C419.806 402.818 419.689 402.584 419.789 402.45L423.401 397.585C423.501 397.451 423.786 397.451 424.02 397.585L425.24 398.287C425.474 398.438 425.591 398.672 425.474 398.806L421.879 403.671C421.779 403.805 421.495 403.805 421.244 403.671Z" fill="#2FC9D2"/>
<path d="M403.236 393.121L402.016 392.418C401.782 392.285 401.665 392.051 401.782 391.9L405.377 387.051C405.494 386.901 405.761 386.901 406.012 387.051L407.216 387.754C407.467 387.887 407.567 388.121 407.467 388.272L403.855 393.121C403.755 393.271 403.47 393.271 403.236 393.121Z" fill="#2FC9D2"/>
<path opacity="0.4" d="M385.212 382.587L384.009 381.885C383.774 381.734 383.657 381.5 383.758 381.366L387.369 376.501C387.47 376.367 387.754 376.367 387.988 376.501L389.208 377.22C389.443 377.354 389.56 377.588 389.459 377.722L385.848 382.587C385.747 382.721 385.463 382.721 385.212 382.587Z" fill="black"/>
<path opacity="0.4" d="M421.244 403.671L420.04 402.952C419.806 402.818 419.689 402.584 419.789 402.45L423.401 397.585C423.501 397.451 423.786 397.451 424.02 397.585L425.24 398.287C425.474 398.438 425.591 398.672 425.474 398.806L421.879 403.671C421.779 403.805 421.495 403.805 421.244 403.671Z" fill="black"/>
<path opacity="0.4" d="M403.236 393.121L402.016 392.418C401.782 392.285 401.665 392.051 401.782 391.9L405.377 387.051C405.494 386.901 405.761 386.901 406.012 387.051L407.216 387.754C407.467 387.887 407.567 388.121 407.467 388.272L403.855 393.121C403.755 393.271 403.47 393.271 403.236 393.121Z" fill="black"/>
<path d="M436.693 317.68C436.693 307.648 433.349 268.172 449.802 264.828C455.002 259.344 480.767 258.775 484.713 272.72C489.93 291.028 482.205 335.704 482.205 335.704L436.693 317.68Z" fill="#263238"/>
<path d="M485.633 335.805C485.577 335.798 485.524 335.781 485.476 335.754C485.427 335.727 485.385 335.691 485.351 335.647C485.316 335.604 485.291 335.554 485.276 335.501C485.262 335.447 485.258 335.391 485.265 335.336C485.265 334.885 490.699 290.192 484.696 272.503C483.024 267.654 478.376 264.26 471.487 262.922C462.525 261.166 452.828 263.357 450.136 266.467C450.058 266.543 449.953 266.586 449.843 266.586C449.734 266.586 449.629 266.543 449.551 266.467C449.473 266.386 449.43 266.278 449.43 266.166C449.43 266.054 449.473 265.946 449.551 265.865C452.694 262.22 463.244 260.397 471.705 262.053C478.894 263.44 483.81 267.069 485.549 272.185C491.602 290.092 486.201 334.935 486.151 335.387C486.15 335.45 486.134 335.512 486.106 335.569C486.079 335.626 486.038 335.676 485.989 335.716C485.94 335.756 485.882 335.785 485.821 335.8C485.759 335.815 485.695 335.817 485.633 335.805Z" fill="#263238"/>
<path d="M448.096 292.717C445.572 299.974 439.853 312.664 432.747 314.336C432.747 314.336 430.657 321.994 442.779 329.083C456.155 336.875 453.012 326.19 453.012 326.19C446.759 320.205 450.086 314.921 454.316 310.607L448.096 292.717Z" fill="#E4897B"/>
<path d="M450.604 300.007L454.283 310.591C453.288 311.59 452.376 312.669 451.557 313.818C449.016 311.795 446.29 306.862 447.695 303.786C448.43 302.362 449.416 301.082 450.604 300.007Z" fill="#CE6F64"/>
<path d="M448.197 278.254C444.736 290.41 443.013 295.476 446.876 303.685C452.677 316.058 468.344 317.647 475.3 306.779C481.62 296.997 486.201 278.773 476.236 269.995C474.051 268.051 471.407 266.696 468.553 266.057C465.699 265.418 462.729 265.516 459.924 266.343C457.119 267.169 454.57 268.696 452.518 270.78C450.466 272.864 448.979 275.436 448.197 278.254Z" fill="#E4897B"/>
<path d="M444.635 285.912C453.28 289.139 473.594 278.421 479.129 271.851C479.864 261.718 456.105 265.714 456.105 265.714C456.105 265.714 443.431 261.819 444.635 285.912Z" fill="#263238"/>
<path d="M442.579 288.336C442.016 290.712 442.419 293.213 443.699 295.292C445.371 298.034 448.448 296.964 449.785 294.255C450.989 291.781 451.541 287.35 448.949 285.561C448.373 285.181 447.711 284.951 447.023 284.892C446.336 284.833 445.644 284.947 445.012 285.222C444.379 285.498 443.825 285.927 443.4 286.471C442.976 287.015 442.693 287.656 442.579 288.336Z" fill="#E4897B"/>
<path d="M465.067 287.935C464.716 288.905 464.95 289.875 465.585 290.092C466.221 290.309 467.007 289.707 467.358 288.738C467.709 287.768 467.458 286.815 466.823 286.581C466.187 286.347 465.402 286.965 465.067 287.935Z" fill="#263238"/>
<path d="M476.002 291.797C475.667 292.767 475.901 293.72 476.537 293.954C477.172 294.188 477.958 293.57 478.292 292.6C478.627 291.63 478.393 290.661 477.774 290.443C477.155 290.226 476.353 290.828 476.002 291.797Z" fill="#263238"/>
<path d="M477.473 290.393L480.031 290.543C480.031 290.543 478.192 291.948 477.473 290.393Z" fill="#263238"/>
<path d="M472.524 292.433C472.613 294.942 473.041 297.428 473.795 299.823C473.178 300.004 472.528 300.047 471.892 299.949C471.257 299.851 470.65 299.614 470.117 299.255L472.524 292.433Z" fill="#DE5753"/>
<path d="M465.468 301.896H465.368C464.056 301.47 462.864 300.736 461.893 299.756C460.921 298.776 460.198 297.578 459.784 296.262C459.768 296.182 459.784 296.1 459.828 296.031C459.871 295.963 459.939 295.914 460.018 295.894C460.056 295.884 460.096 295.882 460.136 295.889C460.175 295.896 460.212 295.911 460.245 295.933C460.278 295.955 460.306 295.984 460.328 296.017C460.349 296.051 460.363 296.089 460.369 296.128C460.774 297.338 461.454 298.438 462.357 299.34C463.259 300.242 464.359 300.923 465.569 301.328C465.636 301.351 465.693 301.398 465.729 301.459C465.765 301.521 465.778 301.593 465.766 301.663C465.754 301.733 465.718 301.797 465.663 301.843C465.609 301.888 465.54 301.913 465.468 301.913V301.896Z" fill="#263238"/>
<path d="M464.582 284.106C464.446 284.108 464.314 284.064 464.207 283.981C464.099 283.899 464.023 283.782 463.99 283.65C463.957 283.519 463.969 283.38 464.025 283.256C464.081 283.133 464.177 283.031 464.298 282.969C465.129 282.5 466.06 282.235 467.014 282.197C467.968 282.159 468.917 282.35 469.782 282.752C469.86 282.784 469.931 282.832 469.989 282.893C470.048 282.954 470.093 283.027 470.121 283.106C470.15 283.186 470.161 283.27 470.155 283.355C470.148 283.439 470.124 283.521 470.084 283.595C470.044 283.669 469.989 283.734 469.922 283.786C469.855 283.837 469.778 283.874 469.696 283.894C469.614 283.914 469.528 283.916 469.445 283.901C469.362 283.886 469.283 283.853 469.214 283.805C468.522 283.499 467.767 283.36 467.012 283.401C466.256 283.442 465.521 283.66 464.866 284.039C464.779 284.085 464.681 284.108 464.582 284.106Z" fill="#263238"/>
<path d="M482.941 288.537C482.809 288.537 482.681 288.492 482.578 288.41C482.475 288.328 482.402 288.214 482.372 288.086C482.204 287.35 481.865 286.664 481.383 286.083C480.901 285.502 480.289 285.042 479.597 284.742C479.445 284.688 479.321 284.578 479.249 284.435C479.177 284.291 479.164 284.126 479.212 283.972C479.236 283.896 479.276 283.826 479.328 283.766C479.381 283.706 479.445 283.657 479.517 283.622C479.589 283.588 479.668 283.569 479.747 283.565C479.827 283.562 479.907 283.576 479.981 283.605C480.866 283.968 481.65 284.539 482.267 285.27C482.884 286 483.316 286.869 483.526 287.801C483.546 287.878 483.551 287.958 483.54 288.037C483.529 288.116 483.502 288.191 483.462 288.26C483.421 288.328 483.368 288.388 483.304 288.435C483.241 288.483 483.168 288.518 483.091 288.537H482.941Z" fill="#263238"/>
<path d="M466.488 286.547L469.046 286.698C469.046 286.698 467.257 288.086 466.488 286.547Z" fill="#263238"/>
<path d="M412.315 305.759C407.048 304.505 390.847 316.844 390.847 316.844L397.719 338.764C397.719 338.764 414.656 329.384 416.228 322.479C417.783 315.323 418.318 307.197 412.315 305.759Z" fill="#2FC9D2"/>
<path opacity="0.7" d="M412.315 305.759C407.048 304.505 390.847 316.844 390.847 316.844L397.719 338.764C397.719 338.764 414.656 329.384 416.228 322.479C417.783 315.323 418.318 307.197 412.315 305.759Z" fill="white"/>
</g>
<path d="M605.264 166.264H481.202C475.88 166.264 470.777 168.378 467.014 172.14C463.252 175.903 461.138 181.006 461.138 186.328V224.784C461.138 230.105 463.252 235.208 467.014 238.971C470.777 242.734 475.88 244.848 481.202 244.848H491.568V264.577L511.298 244.848H605.264C610.585 244.848 615.689 242.734 619.452 238.971C623.214 235.208 625.328 230.105 625.328 224.784V186.328C625.328 181.006 623.214 175.903 619.452 172.14C615.689 168.378 610.585 166.264 605.264 166.264Z" fill="#2FC9D2"/>
<path opacity="0.3" d="M605.264 166.264H481.202C475.88 166.264 470.777 168.378 467.014 172.14C463.252 175.903 461.138 181.006 461.138 186.328V224.784C461.138 230.105 463.252 235.208 467.014 238.971C470.777 242.734 475.88 244.848 481.202 244.848H491.568V264.577L511.298 244.848H605.264C610.585 244.848 615.689 242.734 619.452 238.971C623.214 235.208 625.328 230.105 625.328 224.784V186.328C625.328 181.006 623.214 175.903 619.452 172.14C615.689 168.378 610.585 166.264 605.264 166.264Z" fill="black"/>
<g opacity="0.54">
<path d="M602.355 182.248H484.077C481.538 182.248 479.479 184.307 479.479 186.846C479.479 189.385 481.538 191.444 484.077 191.444H602.355C604.894 191.444 606.953 189.385 606.953 186.846C606.953 184.307 604.894 182.248 602.355 182.248Z" fill="#F5F5F5"/>
</g>
<g opacity="0.54">
<path d="M602.338 209.719H526.53C525.307 209.715 524.136 209.227 523.272 208.362C522.407 207.498 521.919 206.327 521.915 205.104C521.919 203.883 522.408 202.714 523.273 201.852C524.138 200.99 525.309 200.506 526.53 200.506H602.338C603.558 200.506 604.727 200.991 605.59 201.853C606.452 202.715 606.936 203.885 606.936 205.104C606.936 206.325 606.452 207.496 605.591 208.361C604.729 209.226 603.559 209.715 602.338 209.719Z" fill="#F5F5F5"/>
</g>
<g opacity="0.54">
<path d="M504.024 209.719H484.077C482.856 209.715 481.687 209.226 480.825 208.361C479.963 207.496 479.479 206.325 479.479 205.104C479.479 203.885 479.964 202.715 480.826 201.853C481.689 200.991 482.858 200.506 484.077 200.506H504.024C505.244 200.506 506.413 200.991 507.276 201.853C508.138 202.715 508.622 203.885 508.622 205.104C508.622 206.325 508.139 207.496 507.277 208.361C506.415 209.226 505.245 209.715 504.024 209.719Z" fill="#F5F5F5"/>
</g>
<g opacity="0.54">
<path d="M572.811 227.977H484.077C482.858 227.977 481.689 227.493 480.826 226.63C479.964 225.768 479.479 224.599 479.479 223.379C479.479 222.158 479.963 220.987 480.825 220.122C481.687 219.257 482.856 218.769 484.077 218.764H572.811C574.032 218.769 575.201 219.257 576.063 220.122C576.925 220.987 577.409 222.158 577.409 223.379C577.409 224.599 576.924 225.768 576.062 226.63C575.2 227.493 574.03 227.977 572.811 227.977Z" fill="#F5F5F5"/>
</g>
</svg>
