<svg width="55" height="30" viewBox="0 0 55 30" fill="none" xmlns="http://www.w3.org/2000/svg">
<path id="Vector" fill-rule="evenodd" clip-rule="evenodd" d="M53.1799 2.03139C53.5527 0.86043 53.1799 0 51.4052 0H45.5371C44.045 0 43.3571 0.743364 42.984 1.56293C42.984 1.56293 39.9999 8.41306 35.7724 12.8626C34.4046 14.1506 33.7829 14.5604 33.0368 14.5604C32.6639 14.5604 32.1239 14.1506 32.1239 12.9797V2.03149C32.1239 0.626295 31.6909 0 30.4474 0H21.2259C20.2935 0 19.7327 0.652247 19.7327 1.27031C19.7327 2.6024 21.8464 2.90954 22.0643 6.65666V14.7947C22.0643 16.5789 21.7221 16.9024 20.9761 16.9024C18.9867 16.9024 14.1475 10.0218 11.2775 2.14846C10.7151 0.618161 10.151 0 8.6512 0H2.78302C1.10641 0 0.770996 0.743364 0.770996 1.56293C0.770996 3.02671 2.76046 10.2866 10.0342 19.8883C14.8834 26.4455 21.7155 30 27.9324 30C31.6626 30 32.124 29.2105 32.124 27.8507V22.8947C32.124 21.3158 32.4774 21.0006 33.6587 21.0006C34.529 21.0006 36.021 21.4105 39.5026 24.572C43.4814 28.319 44.1374 30 46.3754 30H52.2436C53.9202 30 54.7586 29.2105 54.2749 27.6526C53.7457 26.0998 51.846 23.8469 49.3253 21.1763C47.9576 19.6541 45.906 18.0148 45.2842 17.195C44.4139 16.1413 44.6626 15.6728 45.2842 14.7361C45.2842 14.7361 52.4339 5.25147 53.1799 2.03139Z" fill="#2FC9D2"/>
</svg>
