<svg width="80" height="75" viewBox="0 0 80 75" fill="none" xmlns="http://www.w3.org/2000/svg">
<path d="M79.2443 65.7024L45.5665 3.31735C43.1795 -1.10578 36.8205 -1.10578 34.4315 3.31735L0.7557 65.7024C0.237407 66.6626 -0.0224408 67.7405 0.00151898 68.8307C0.0254788 69.921 0.332428 70.9865 0.892406 71.9232C1.45238 72.8598 2.24626 73.6356 3.19653 74.1749C4.14681 74.7142 5.22102 74.9984 6.31432 75H73.6758C74.7699 75.0001 75.8454 74.7171 76.797 74.1785C77.7487 73.64 78.5439 72.8643 79.1051 71.9274C79.6662 70.9905 79.974 69.9243 79.9984 68.8332C80.0228 67.7421 79.763 66.6633 79.2443 65.7024ZM40 65.3417C39.2184 65.3417 38.4543 65.1105 37.8043 64.6773C37.1544 64.2441 36.6479 63.6284 36.3487 62.9081C36.0496 62.1877 35.9714 61.3951 36.1238 60.6304C36.2763 59.8657 36.6527 59.1633 37.2054 58.6119C37.7582 58.0606 38.4624 57.6852 39.229 57.533C39.9956 57.3809 40.7902 57.459 41.5124 57.7574C42.2346 58.0557 42.8518 58.561 43.286 59.2093C43.7203 59.8576 43.9521 60.6198 43.9521 61.3995C43.9521 62.445 43.5357 63.4477 42.7946 64.187C42.0534 64.9263 41.0482 65.3417 40 65.3417ZM44.292 25.6932L43.1577 49.7405C43.1577 50.5769 42.8246 51.3791 42.2317 51.9705C41.6388 52.562 40.8346 52.8942 39.996 52.8942C39.1575 52.8942 38.3533 52.562 37.7604 51.9705C37.1675 51.3791 36.8344 50.5769 36.8344 49.7405L35.7001 25.703C35.6746 25.1286 35.7653 24.555 35.9668 24.0163C36.1683 23.4776 36.4765 22.9849 36.873 22.5676C37.2694 22.1502 37.7461 21.8167 38.2745 21.5871C38.8029 21.3574 39.3722 21.2361 39.9486 21.2306H39.9901C40.5704 21.2303 41.1448 21.3473 41.6785 21.5745C42.2123 21.8017 42.6943 22.1344 43.0956 22.5526C43.4969 22.9707 43.8091 23.4656 44.0133 24.0074C44.2176 24.5492 44.3097 25.1267 44.2841 25.705L44.292 25.6932Z" fill="#2FC9D2"/>
</svg>
