<svg width="20" height="20" viewBox="0 0 20 20" fill="none" xmlns="http://www.w3.org/2000/svg">
<path d="M9.99998 4.00001C9.74629 4.00001 9.503 3.89923 9.32362 3.71985C9.14423 3.54046 9.04346 3.29717 9.04346 3.04348V0.956523C9.04346 0.702837 9.14423 0.459542 9.32362 0.280159C9.503 0.100776 9.74629 0 9.99998 0C10.2537 0 10.497 0.100776 10.6763 0.280159C10.8557 0.459542 10.9565 0.702837 10.9565 0.956523V3.04348C10.9565 3.29717 10.8557 3.54046 10.6763 3.71985C10.497 3.89923 10.2537 4.00001 9.99998 4.00001Z" fill="#181818"/>
<path d="M9.99998 20C9.74629 20 9.503 19.8992 9.32362 19.7199C9.14423 19.5405 9.04346 19.2972 9.04346 19.0435V16.9565C9.04346 16.7029 9.14423 16.4596 9.32362 16.2802C9.503 16.1008 9.74629 16 9.99998 16C10.2537 16 10.497 16.1008 10.6763 16.2802C10.8557 16.4596 10.9565 16.7029 10.9565 16.9565V19.0435C10.9565 19.2972 10.8557 19.5405 10.6763 19.7199C10.497 19.8992 10.2537 20 9.99998 20Z" fill="#181818"/>
<path d="M14.9191 6.0374C14.7299 6.03738 14.545 5.98129 14.3878 5.87621C14.2305 5.77113 14.1079 5.62178 14.0355 5.44705C13.9631 5.27232 13.9441 5.08005 13.981 4.89453C14.0178 4.70902 14.1088 4.53859 14.2425 4.40479L15.7182 2.92914C15.8984 2.75366 16.1404 2.65619 16.3919 2.65785C16.6434 2.65951 16.8841 2.76015 17.0619 2.93799C17.2398 3.11583 17.3404 3.35656 17.3421 3.60805C17.3437 3.85955 17.2463 4.10158 17.0708 4.28175L15.5951 5.7574C15.5064 5.8463 15.4011 5.9168 15.285 5.96485C15.169 6.0129 15.0446 6.03756 14.9191 6.0374Z" fill="#181818"/>
<path d="M3.60533 17.3513C3.41614 17.3513 3.2312 17.2952 3.07391 17.19C2.91662 17.0849 2.79404 16.9355 2.72167 16.7607C2.6493 16.5859 2.6304 16.3936 2.66734 16.208C2.70429 16.0225 2.79543 15.852 2.92924 15.7183L4.4049 14.2426C4.49328 14.1519 4.59881 14.0796 4.71535 14.03C4.8319 13.9803 4.95714 13.9544 5.08381 13.9535C5.21048 13.9527 5.33606 13.977 5.45325 14.0251C5.57043 14.0732 5.6769 14.1441 5.76648 14.2337C5.85605 14.3232 5.92693 14.4297 5.97502 14.5469C6.02311 14.6641 6.04745 14.7897 6.04661 14.9163C6.04578 15.043 6.01979 15.1682 5.97017 15.2848C5.92054 15.4013 5.84825 15.5069 5.75751 15.5952L4.28185 17.0709C4.19312 17.1599 4.08768 17.2305 3.97158 17.2786C3.85548 17.3267 3.73101 17.3515 3.60533 17.3513Z" fill="#181818"/>
<path d="M19.0435 10.9565H16.9565C16.7028 10.9565 16.4595 10.8558 16.2802 10.6764C16.1008 10.497 16 10.2537 16 10C16 9.74632 16.1008 9.50303 16.2802 9.32365C16.4595 9.14426 16.7028 9.04349 16.9565 9.04349H19.0435C19.2972 9.04349 19.5405 9.14426 19.7198 9.32365C19.8992 9.50303 20 9.74632 20 10C20 10.2537 19.8992 10.497 19.7198 10.6764C19.5405 10.8558 19.2972 10.9565 19.0435 10.9565Z" fill="#181818"/>
<path d="M3.04348 10.9565H0.956523C0.702837 10.9565 0.459542 10.8558 0.280159 10.6764C0.100776 10.497 0 10.2537 0 10C0 9.74632 0.100776 9.50303 0.280159 9.32365C0.459542 9.14426 0.702837 9.04349 0.956523 9.04349H3.04348C3.29717 9.04349 3.54046 9.14426 3.71985 9.32365C3.89923 9.50303 4.00001 9.74632 4.00001 10C4.00001 10.2537 3.89923 10.497 3.71985 10.6764C3.54046 10.8558 3.29717 10.9565 3.04348 10.9565Z" fill="#181818"/>
<path d="M16.3948 17.3513C16.2691 17.3514 16.1447 17.3267 16.0286 17.2786C15.9125 17.2305 15.807 17.1599 15.7183 17.0709L14.2426 15.5952C14.0671 15.4151 13.9697 15.173 13.9713 14.9215C13.973 14.67 14.0736 14.4293 14.2515 14.2515C14.4293 14.0736 14.67 13.973 14.9215 13.9713C15.173 13.9697 15.4151 14.0671 15.5952 14.2426L17.0709 15.7183C17.2047 15.852 17.2958 16.0224 17.3328 16.208C17.3697 16.3935 17.3508 16.5859 17.2785 16.7607C17.2061 16.9355 17.0835 17.0849 16.9262 17.19C16.7689 17.2952 16.584 17.3513 16.3948 17.3513Z" fill="#181818"/>
<path d="M5.08089 6.0374C4.9553 6.03765 4.83089 6.01304 4.71486 5.96498C4.59882 5.91692 4.49345 5.84638 4.4048 5.7574L2.92915 4.28175C2.75366 4.10158 2.6562 3.85955 2.65786 3.60805C2.65951 3.35655 2.76016 3.11583 2.938 2.93799C3.11584 2.76015 3.35656 2.65951 3.60806 2.65785C3.85956 2.65619 4.10159 2.75366 4.28176 2.92914L5.75741 4.40479C5.8911 4.53859 5.98212 4.70902 6.01897 4.89453C6.05582 5.08005 6.03684 5.27232 5.96443 5.44705C5.89203 5.62178 5.76944 5.77113 5.61218 5.87621C5.45492 5.98128 5.27003 6.03738 5.08089 6.0374Z" fill="#181818"/>
<path d="M9.99998 14.4348C9.12286 14.4348 8.26544 14.1747 7.53614 13.6874C6.80684 13.2001 6.23842 12.5075 5.90277 11.6971C5.56711 10.8868 5.47928 9.9951 5.6504 9.13483C5.82152 8.27457 6.24389 7.48436 6.86411 6.86415C7.48432 6.24393 8.27453 5.82156 9.13479 5.65044C9.99506 5.47932 10.8867 5.56715 11.6971 5.9028C12.5074 6.23846 13.2001 6.80688 13.6874 7.53618C14.1747 8.26548 14.4348 9.1229 14.4348 10C14.4334 11.1758 13.9657 12.303 13.1343 13.1344C12.3029 13.9657 11.1757 14.4334 9.99998 14.4348Z" fill="#181818"/>
</svg>
