<svg width="20" height="21" viewBox="0 0 20 21" fill="none" xmlns="http://www.w3.org/2000/svg">
<path d="M19.9535 14.226C20.1802 13.6817 19.5325 13.2192 18.9885 13.4607C17.905 13.94 16.7306 14.1869 15.5431 14.1852C10.8931 14.1852 7.12393 10.467 7.12393 5.87993C7.12393 4.27447 7.5857 2.77568 8.38488 1.50562C8.69965 1.00539 8.32077 0.310949 7.74371 0.459165C3.28802 1.60337 0 5.59883 0 10.352C0 15.9976 4.63898 20.5738 10.3621 20.5738C14.6948 20.5738 18.4063 17.9507 19.9535 14.226Z" fill="#181818"/>
<path d="M14.0123 0.553524C13.4235 0.158274 12.7212 0.864632 13.1139 1.45814L13.8141 2.5154C14.098 2.94397 14.2494 3.44756 14.2494 3.96267C14.2494 4.47778 14.098 4.98136 13.8141 5.40994L13.1139 6.46718C12.7212 7.06005 13.4235 7.76705 14.013 7.37116L15.0624 6.66677C15.4882 6.381 15.9883 6.22852 16.5 6.22852C17.0116 6.22852 17.5118 6.381 17.9375 6.66677L18.9876 7.37116C19.5765 7.76705 20.2788 7.06005 19.8855 6.46653L19.1859 5.40994C18.902 4.98136 18.7505 4.47778 18.7505 3.96267C18.7505 3.44756 18.902 2.94397 19.1859 2.5154L19.8861 1.45814C20.2788 0.865281 19.5765 0.158274 18.987 0.554173L17.9375 1.25857C17.5118 1.54432 17.0116 1.69681 16.5 1.69681C15.9883 1.69681 15.4882 1.54432 15.0624 1.25857L14.0123 0.553524Z" fill="#181818"/>
</svg>
